<svg width="22" height="22" viewBox="0 0 22 22" fill="none" xmlns="http://www.w3.org/2000/svg">
<path d="M14.0219 8.10151C14.5469 8.36401 15.0719 8.27651 15.5094 7.83901C16.0344 7.31401 16.0344 6.52651 15.5094 6.00151C14.9844 5.47651 14.1969 5.47651 13.6719 6.00151C13.2344 6.35151 13.1469 6.96401 13.4094 7.48901L10.1719 10.7265L3.08438 3.55151C-1.02813 7.66401 -1.02813 14.314 3.08438 18.4265C7.19688 22.539 13.8469 22.539 17.9594 18.4265L10.8719 11.339L14.0219 8.10151ZM14.2844 6.61401C14.4594 6.43901 14.7219 6.43901 14.8969 6.61401C15.0719 6.78901 15.0719 7.05151 14.8969 7.22651C14.7219 7.40151 14.4594 7.40151 14.2844 7.22651C14.1094 7.05151 14.1094 6.78901 14.2844 6.61401ZM4.30938 17.2015C1.33438 14.2265 0.984375 9.58901 3.17188 6.17651L15.3344 18.339C11.9219 20.5265 7.28438 20.1765 4.30938 17.2015Z" fill="white"/>
<path d="M14.4594 0.489014C12.8844 0.489014 11.3969 1.01401 10.2594 1.97651C10.2594 1.97651 9.82188 2.41401 10.1719 2.67651C10.5219 2.93901 10.8719 2.58901 10.8719 2.58901C11.8344 1.80151 13.1469 1.36401 14.4594 1.36401C17.6094 1.36401 20.1469 3.90151 20.1469 7.05151C20.1469 8.36401 19.7094 9.67651 18.9219 10.639C18.9219 10.639 18.5719 11.0765 18.8344 11.339C19.0969 11.6015 19.6219 11.2515 19.6219 11.2515C20.5844 10.114 21.1094 8.62651 21.1094 7.05151C21.0219 3.46401 18.0469 0.489014 14.4594 0.489014Z" fill="white"/>
<path d="M14.4594 3.11401C13.5844 3.11401 12.7969 3.37651 12.1844 3.90151C12.1844 3.90151 11.8344 4.33901 12.0969 4.60151C12.3594 4.86401 12.7969 4.51401 12.7969 4.51401C13.2344 4.16401 13.8469 3.98901 14.4594 3.98901C16.1219 3.98901 17.5219 5.38901 17.5219 7.05151C17.5219 7.66401 17.3469 8.27651 16.9969 8.71401C16.9969 8.71401 16.5594 9.15151 16.9094 9.50151C17.2594 9.85151 17.6969 9.41401 17.6969 9.41401C18.1344 8.71401 18.3969 7.92651 18.3969 7.05151C18.3969 4.86401 16.6469 3.11401 14.4594 3.11401Z" fill="white"/>
</svg>
