<svg width="22" height="21" viewBox="0 0 22 21" fill="none" xmlns="http://www.w3.org/2000/svg">
<path d="M21.0097 5.08368C18.4483 2.56139 14.9015 1 10.9822 1C7.08601 1 3.55781 2.54308 1 5.03926" stroke="#BBCF26" stroke-linecap="round" stroke-linejoin="round"/>
<path d="M1.63745 14.5277V14.4965C1.63745 9.3111 5.84097 5.10754 11.0263 5.10754" stroke="#BBCF26" stroke-linecap="round" stroke-linejoin="round"/>
<path d="M14.91 5.94604C18.1575 7.42333 20.4154 10.6963 20.4154 14.4967V14.5037" stroke="#BBCF26" stroke-linecap="round" stroke-linejoin="round"/>
<path d="M5.74512 18.6041V14.4965C5.74512 11.5797 8.1096 9.21521 11.0264 9.21521C13.9431 9.21521 16.3076 11.5797 16.3076 14.4965V18.6041" stroke="#BBCF26" stroke-linecap="round" stroke-linejoin="round"/>
<path d="M9.26624 19.7935C9.26624 18.7857 9.26624 17.2155 9.26624 15.0832C9.26624 14.1109 10.0544 13.3228 11.0267 13.3228C11.9989 13.3228 12.7871 14.1109 12.7871 15.0832V19.7935" stroke="#BBCF26" stroke-linecap="round" stroke-linejoin="round"/>
</svg>
