<svg width="17" height="16" viewBox="0 0 17 16" fill="none" xmlns="http://www.w3.org/2000/svg">
<path d="M15.9083 4.04209C14.0002 2.16314 11.358 1 8.43845 1C5.53602 1 2.90773 2.1495 1.00232 4.009" stroke="#1D1E1C" stroke-linecap="round" stroke-linejoin="round"/>
<path d="M1.47717 11.0772V11.054C1.47717 7.1912 4.60853 4.05981 8.47132 4.05981" stroke="#1D1E1C" stroke-linecap="round" stroke-linejoin="round"/>
<path d="M11.3645 4.68445C13.7837 5.78494 15.4657 8.22309 15.4657 11.0541V11.0593" stroke="#1D1E1C" stroke-linecap="round" stroke-linejoin="round"/>
<path d="M4.53723 14.1139V11.054C4.53723 8.88114 6.29862 7.11975 8.47143 7.11975C10.6442 7.11975 12.4056 8.88114 12.4056 11.054V14.1139" stroke="#1D1E1C" stroke-linecap="round" stroke-linejoin="round"/>
<path d="M7.16028 15C7.16028 14.2492 7.16028 13.0796 7.16028 11.4911C7.16028 10.7668 7.74742 10.1797 8.47168 10.1797C9.19598 10.1797 9.78308 10.7668 9.78308 11.4911V15" stroke="#1D1E1C" stroke-linecap="round" stroke-linejoin="round"/>
</svg>
