<svg width="9" height="16" viewBox="0 0 9 16" fill="none" xmlns="http://www.w3.org/2000/svg">
<path d="M0.149898 7.65424L7.15405 0.650402C7.25428 0.550274 7.36962 0.5 7.49981 0.5C7.63005 0.5 7.74534 0.550274 7.84552 0.650402L8.5969 1.40194C8.69723 1.50212 8.74719 1.6172 8.74719 1.74765C8.74719 1.8781 8.69723 1.99318 8.5969 2.09336L2.6901 8.00016L8.5969 13.9071C8.69723 14.0072 8.74719 14.1225 8.74719 14.2526C8.74719 14.383 8.69723 14.4983 8.5969 14.5985L7.84546 15.3498C7.74528 15.45 7.62999 15.5 7.49976 15.5C7.36957 15.5 7.25428 15.4499 7.15405 15.3498L0.150268 8.34587C0.0501394 8.24574 2.28882e-05 8.1304 2.28882e-05 8.00016C2.28882e-05 7.86992 0.0497704 7.75463 0.149898 7.65424Z" fill="#D9D9D9"/>
</svg>
