<svg width="24" height="24" viewBox="0 0 24 24" fill="none" xmlns="http://www.w3.org/2000/svg">
<path d="M22.5417 11.0545H21.5833V4.92119C21.5833 4.44202 21.2 4.34619 20.625 4.34619H13.3417L16.1208 1.37536C16.3125 1.18369 16.4083 0.992023 16.025 0.704523C15.7375 0.417023 15.45 0.704523 15.2583 0.89619L12 4.34619L8.64583 0.800356C8.45417 0.60869 8.07083 0.32119 7.78333 0.60869C7.49583 0.89619 7.59167 1.18369 7.78333 1.37536L10.6583 4.34619H3.375C2.8 4.34619 2.41667 4.44202 2.41667 4.92119V11.0545H1.45833C0.883333 11.0545 0.5 11.1504 0.5 11.6295V15.4629C0.5 16.0379 0.883333 16.8045 1.45833 16.8045H2.41667V22.1712C2.41667 22.7462 2.8 23.5129 3.375 23.5129H20.625C21.2 23.5129 21.5833 22.7462 21.5833 22.1712V16.8045H22.5417C23.1167 16.8045 23.5 16.0379 23.5 15.4629V11.6295C23.5 11.1504 23.1167 11.0545 22.5417 11.0545ZM1.45833 15.8462V12.0129H3.375V15.8462H1.45833ZM19.6667 21.5962H4.33333V6.26286H19.6667V21.5962ZM22.5417 15.8462H20.625V12.0129H22.5417V15.8462Z" fill="white"/>
<path d="M15.8333 8.75452C14.7792 8.75452 13.9167 9.61702 13.9167 10.6712C13.9167 11.7253 14.7792 12.5878 15.8333 12.5878C16.8875 12.5878 17.75 11.7253 17.75 10.6712C17.75 9.61702 16.8875 8.75452 15.8333 8.75452ZM15.8333 11.6295C15.2583 11.6295 14.875 11.2462 14.875 10.6712C14.875 10.0962 15.2583 9.71285 15.8333 9.71285C16.4083 9.71285 16.7917 10.0962 16.7917 10.6712C16.7917 11.2462 16.4083 11.6295 15.8333 11.6295Z" fill="white"/>
<path d="M8.16667 12.5878C9.22083 12.5878 10.0833 11.7253 10.0833 10.6712C10.0833 9.61702 9.22083 8.75452 8.16667 8.75452C7.1125 8.75452 6.25 9.61702 6.25 10.6712C6.25 11.7253 7.1125 12.5878 8.16667 12.5878ZM8.16667 9.71285C8.74167 9.71285 9.125 10.0962 9.125 10.6712C9.125 11.2462 8.74167 11.6295 8.16667 11.6295C7.59167 11.6295 7.20833 11.2462 7.20833 10.6712C7.20833 10.0962 7.59167 9.71285 8.16667 9.71285Z" fill="white"/>
<path d="M16.7917 16.8049C16.7917 16.2299 16.4083 15.8466 15.8333 15.8466H8.16668C7.59168 15.8466 7.20834 16.2299 7.20834 16.8049V18.7216C7.20834 19.2966 7.59168 19.6799 8.16668 19.6799H15.8333C16.4083 19.6799 16.7917 19.2966 16.7917 18.7216V16.8049ZM8.16668 18.3382V16.4216H10.0833V18.3382H8.16668ZM11.0417 18.3382V16.4216H12.9583V18.3382H11.0417ZM15.8333 18.3382H13.9167V16.4216H15.8333V18.3382Z" fill="white"/>
</svg>
