<svg width="15" height="12" viewBox="0 0 15 12" fill="none" xmlns="http://www.w3.org/2000/svg">
<path d="M10.5521 5.45209H3.46161V2.64631H10.5521C10.9662 2.64631 11.2542 2.71851 11.3987 2.84456C11.5433 2.97064 11.6328 3.20445 11.6328 3.54602V4.55347C11.6328 4.91335 11.5433 5.14716 11.3987 5.27324C11.2542 5.39929 10.9662 5.45318 10.5521 5.45318V5.45209ZM11.0385 0.00107297H0.45459V12H3.46161V8.09626H9.00326L11.6328 12H15L12.1009 8.07795C13.1697 7.91955 13.6497 7.59198 14.0455 7.05216C14.4413 6.51235 14.6399 5.64927 14.6399 4.49744V3.59775C14.6399 2.9146 14.5675 2.37478 14.4413 1.96104C14.3151 1.54727 14.0995 1.1874 13.7931 0.864145C13.4696 0.558145 13.1093 0.342636 12.6768 0.198255C12.2443 0.0722001 11.704 0 11.0385 0V0.00107297Z" fill="#1D1E1C"/>
</svg>
