<svg width="40" height="40" viewBox="0 0 40 40" fill="none" xmlns="http://www.w3.org/2000/svg">
<circle cx="20" cy="20" r="19.5" stroke="white"/>
<path fill-rule="evenodd" clip-rule="evenodd" d="M33.4583 13.1508C33.6559 12.4852 33.4583 12 32.5094 12H29.379C28.5846 12 28.2153 12.4208 28.0178 12.8846C28.0178 12.8846 26.4247 16.7664 24.1704 19.2869C23.4404 20.0169 23.1098 20.2488 22.7104 20.2488C22.5129 20.2488 22.2252 20.0169 22.2252 19.3514V13.1508C22.2252 12.3564 21.9933 12 21.332 12H16.4111C15.913 12 15.6124 12.3693 15.6124 12.7214C15.6124 13.4771 16.7417 13.6489 16.8577 15.7744V20.3862C16.8577 21.3953 16.673 21.5799 16.278 21.5799C15.2174 21.5799 12.6367 17.681 11.1037 13.2195C10.8031 12.3521 10.5025 12.0043 9.70384 12.0043H6.5735C5.68035 12.0043 5.5 12.4251 5.5 12.8889C5.5 13.7176 6.56062 17.8313 10.4424 23.2718C13.0317 26.9861 16.673 29 19.9923 29C21.9804 29 22.2295 28.5534 22.2295 27.7805V24.9722C22.2295 24.0791 22.4184 23.8987 23.0496 23.8987C23.5134 23.8987 24.3121 24.1306 26.1671 25.9212C28.2883 28.0424 28.6404 28.9957 29.8342 28.9957H32.9645C33.8577 28.9957 34.3043 28.5491 34.0466 27.6646C33.7632 26.7843 32.7498 25.509 31.4058 23.9932C30.6758 23.1301 29.5808 22.2026 29.2502 21.7388C28.7864 21.142 28.9196 20.8757 29.2502 20.3476C29.2459 20.3476 33.059 14.9758 33.4583 13.1508Z" fill="white"/>
</svg>
