<svg width="21" height="12" viewBox="0 0 21 12" fill="none" xmlns="http://www.w3.org/2000/svg">
<path fill-rule="evenodd" clip-rule="evenodd" d="M19.9882 0.812326C20.1277 0.34251 19.9882 0 19.3184 0H17.1087C16.548 0 16.2873 0.297044 16.1479 0.624399C16.1479 0.624399 15.0233 3.36449 13.432 5.14372C12.9167 5.659 12.6833 5.82268 12.4015 5.82268C12.262 5.82268 12.0589 5.659 12.0589 5.18919V0.812326C12.0589 0.251578 11.8953 0 11.4285 0H7.95488C7.60327 0 7.3911 0.260672 7.3911 0.509219C7.3911 1.04269 8.18827 1.16393 8.27011 2.66431V5.91968C8.27011 6.63198 8.13977 6.76231 7.86091 6.76231C7.11224 6.76231 5.29057 4.0101 4.20848 0.860823C3.9963 0.248547 3.78413 0.00303033 3.22035 0.00303033H1.0107C0.380235 0.00303033 0.25293 0.300075 0.25293 0.627431C0.25293 1.21243 1.0016 4.11619 3.74169 7.95656C5.56943 10.5784 8.13977 12 10.4828 12C11.8862 12 12.062 11.6848 12.062 11.1392V9.15686C12.062 8.5264 12.1953 8.39909 12.6409 8.39909C12.9683 8.39909 13.532 8.56277 14.8415 9.82673C16.3388 11.3241 16.5874 11.997 17.43 11.997H19.6396C20.2701 11.997 20.5853 11.6817 20.4035 11.0573C20.2034 10.436 19.4881 9.53574 18.5394 8.46577C18.0241 7.85653 17.2512 7.20182 17.0178 6.87446C16.6904 6.45315 16.7844 6.26522 17.0178 5.8924C17.0147 5.8924 19.7063 2.10053 19.9882 0.812326Z" fill="#1D1E1C"/>
</svg>
