<svg width="10" height="16" viewBox="0 0 10 16" fill="none" xmlns="http://www.w3.org/2000/svg">
<path d="M9.34449 7.65424L2.34034 0.650402C2.24011 0.550274 2.12476 0.5 1.99458 0.5C1.86434 0.5 1.74905 0.550274 1.64887 0.650402L0.897489 1.40194C0.797151 1.50212 0.747192 1.6172 0.747192 1.74765C0.747192 1.8781 0.797151 1.99318 0.897489 2.09336L6.80429 8.00016L0.897489 13.9071C0.797151 14.0072 0.747192 14.1225 0.747192 14.2526C0.747192 14.383 0.797151 14.4983 0.897489 14.5985L1.64892 15.3498C1.7491 15.45 1.86439 15.5 1.99463 15.5C2.12482 15.5 2.24011 15.4499 2.34034 15.3498L9.34412 8.34587C9.44425 8.24574 9.49436 8.1304 9.49436 8.00016C9.49436 7.86992 9.44461 7.75463 9.34449 7.65424Z" fill="#111111"/>
</svg>
