<svg width="24" height="24" viewBox="0 0 24 24" fill="none" xmlns="http://www.w3.org/2000/svg">
<path d="M23.0208 11.0417C23.3083 11.0417 23.5 10.85 23.5 10.5625C23.5 10.275 23.3083 10.0833 23.0208 10.0833H19.6667V8.16667H23.0208C23.3083 8.16667 23.5 7.975 23.5 7.6875C23.5 7.4 23.3083 7.20833 23.0208 7.20833H19.6667V5.29167C19.6667 4.71667 19.2833 4.33333 18.7083 4.33333H16.7917V0.979167C16.7917 0.691667 16.6 0.5 16.3125 0.5C16.025 0.5 15.8333 0.691667 15.8333 0.979167V4.33333H13.9167V0.979167C13.9167 0.691667 13.725 0.5 13.4375 0.5C13.15 0.5 12.9583 0.691667 12.9583 0.979167V4.33333H11.0417V0.979167C11.0417 0.691667 10.85 0.5 10.5625 0.5C10.275 0.5 10.0833 0.691667 10.0833 0.979167V4.33333H8.16667V0.979167C8.16667 0.691667 7.975 0.5 7.6875 0.5C7.4 0.5 7.20833 0.691667 7.20833 0.979167V4.33333H5.29167C4.71667 4.33333 4.33333 4.71667 4.33333 5.29167V7.20833H0.979167C0.691667 7.20833 0.5 7.4 0.5 7.6875C0.5 7.975 0.691667 8.16667 0.979167 8.16667H4.33333V10.0833H0.979167C0.691667 10.0833 0.5 10.275 0.5 10.5625C0.5 10.85 0.691667 11.0417 0.979167 11.0417H4.33333V12.9583H0.979167C0.691667 12.9583 0.5 13.15 0.5 13.4375C0.5 13.725 0.691667 13.9167 0.979167 13.9167H4.33333V15.8333H0.979167C0.691667 15.8333 0.5 16.025 0.5 16.3125C0.5 16.6 0.691667 16.7917 0.979167 16.7917H4.33333V18.7083C4.33333 19.2833 4.71667 19.6667 5.29167 19.6667H7.20833V23.0208C7.20833 23.3083 7.4 23.5 7.6875 23.5C7.975 23.5 8.16667 23.3083 8.16667 23.0208V19.6667H10.0833V23.0208C10.0833 23.3083 10.275 23.5 10.5625 23.5C10.85 23.5 11.0417 23.3083 11.0417 23.0208V19.6667H12.9583V23.0208C12.9583 23.3083 13.15 23.5 13.4375 23.5C13.725 23.5 13.9167 23.3083 13.9167 23.0208V19.6667H15.8333V23.0208C15.8333 23.3083 16.025 23.5 16.3125 23.5C16.6 23.5 16.7917 23.3083 16.7917 23.0208V19.6667H18.7083C19.2833 19.6667 19.6667 19.2833 19.6667 18.7083V16.7917H23.0208C23.3083 16.7917 23.5 16.6 23.5 16.3125C23.5 16.025 23.3083 15.8333 23.0208 15.8333H19.6667V13.9167H23.0208C23.3083 13.9167 23.5 13.725 23.5 13.4375C23.5 13.15 23.3083 12.9583 23.0208 12.9583H19.6667V11.0417H23.0208ZM17.75 17.75H6.25V6.25H17.75V17.75Z" fill="white"/>
</svg>
