<svg width="25" height="26" viewBox="0 0 25 26" fill="none" xmlns="http://www.w3.org/2000/svg">
<path opacity="0.5" d="M24.7349 24.3298L18.9352 18.5299H18.8728C20.6604 16.422 21.5638 13.7046 21.3939 10.946C21.224 8.18735 19.9941 5.60127 17.9614 3.72869C15.9287 1.85611 13.2507 0.842083 10.4876 0.898737C7.72447 0.95539 5.09027 2.07833 3.13603 4.03266C1.18179 5.98699 0.0589031 8.62131 0.00225216 11.3846C-0.0543988 14.1478 0.959577 16.826 2.83207 18.8587C4.70457 20.8915 7.29053 22.1215 10.049 22.2914C12.8075 22.4612 15.5248 21.5578 17.6326 19.7702C17.6326 19.7702 17.6326 19.8148 17.6326 19.8326L23.4322 25.6325C23.5152 25.7162 23.6138 25.7826 23.7226 25.8279C23.8313 25.8732 23.9479 25.8965 24.0657 25.8965C24.1835 25.8965 24.3001 25.8732 24.4089 25.8279C24.5176 25.7826 24.6163 25.7162 24.6992 25.6325C24.7907 25.5515 24.8646 25.4526 24.9162 25.3419C24.9679 25.2312 24.9963 25.111 24.9997 24.9889C25.003 24.8668 24.9812 24.7452 24.9357 24.6319C24.8902 24.5185 24.8218 24.4157 24.7349 24.3298ZM10.7176 20.5018C8.95286 20.5018 7.22777 19.9785 5.76047 18.998C4.29316 18.0176 3.14953 16.624 2.47421 14.9935C1.79888 13.3631 1.62218 11.569 1.96646 9.83808C2.31074 8.10719 3.16053 6.51727 4.40837 5.26937C5.65621 4.02147 7.24606 3.17164 8.97687 2.82735C10.7077 2.48305 12.5017 2.65975 14.1321 3.33511C15.7625 4.01047 17.156 5.15415 18.1364 6.62153C19.1168 8.0889 19.6401 9.81407 19.6401 11.5789C19.6401 12.7506 19.4093 13.911 18.9609 14.9935C18.5125 16.0761 17.8553 17.0598 17.0268 17.8884C16.1982 18.7169 15.2146 19.3742 14.1321 19.8226C13.0496 20.271 11.8893 20.5018 10.7176 20.5018Z" fill="white"/>
</svg>
