<svg width="24" height="24" viewBox="0 0 24 24" fill="none" xmlns="http://www.w3.org/2000/svg">
<path d="M23.1423 9H21.6423C21.4423 8.4 21.2423 7.9 20.9423 7.4L21.9423 6.4C22.3423 6 22.3423 5.4 21.9423 5L19.1423 2.2C18.7423 1.8 18.1423 1.8 17.7423 2.2L16.6423 3.2C16.1423 2.9 16.0423 2.6 15.0423 2.5V1C15.0423 0.4 14.6423 0 14.1423 0H10.1423C9.5423 0 9.0423 0.4 9.0423 1V2.5C8.0423 2.6 7.9423 2.9 7.4423 3.1L6.4423 2.1C6.0423 1.7 5.4423 1.7 5.0423 2.1L2.1423 4.9C1.7423 5.3 1.7423 5.9 2.1423 6.3L3.1423 7.3C2.9423 7.9 2.7423 8.4 2.5423 9H1.1423C0.542297 9 0.0422974 9.4 0.0422974 10V14C0.0422974 14.6 0.542297 15 1.1423 15H2.6423C2.8423 15.6 3.0423 16.1 3.3423 16.6L2.3423 17.6C1.9423 18 1.9423 18.6 2.3423 19L5.0423 21.9C5.4423 22.3 6.0423 22.3 6.4423 21.9L7.4423 20.9C7.9423 21.1 8.0423 21.4 9.0423 21.5V23C9.0423 23.6 9.5423 24 10.1423 24H14.1423C14.7423 24 15.0423 23.6 15.0423 23V21.5C16.0423 21.3 16.1423 21.1 16.6423 20.8L17.6423 21.8C18.0423 22.2 18.6423 22.2 19.0423 21.8L21.8423 19C22.2423 18.6 22.2423 18 21.8423 17.6L20.8423 16.6C21.1423 16.1 21.3423 15.5 21.5423 15H23.0423C23.6423 15 23.9423 14.6 23.9423 14V10C24.0423 9.4 23.6423 9 23.1423 9ZM22.0423 13H20.0423C19.9423 13.7 19.7423 14.4 19.5423 15V15.1C19.2423 15.7 18.9423 16.3 18.4423 16.9L19.8423 18.3C19.6423 18.6 19.4423 19 19.1423 19C18.9423 19 18.6423 19.5 18.4423 19.7L17.0423 18.3C16.5423 18.7 15.9423 19.1 15.2423 19.4H15.1423C14.5423 19.7 14.1423 19.8 13.1423 19.9V21.9C13.1423 21.9 12.4423 22 12.1423 22C11.8423 22 11.1423 22 11.1423 21.9V19.9C10.1423 19.8 9.8423 19.6 9.1423 19.4H9.0423C8.4423 19.1 7.8423 18.8 7.2423 18.3L5.8423 19.7C5.5423 19.5 5.3423 19.3 5.1423 19C4.9423 18.8 4.6423 18.5 4.4423 18.3L5.8423 16.9C5.4423 16.4 5.0423 15.8 4.7423 15.1V15C4.4423 14.4 4.3423 13.7 4.2423 13H2.2423C2.2423 12.7 2.1423 12.3 2.1423 12C2.1423 11.7 2.1423 11.3 2.2423 11H4.2423C4.3423 10.3 4.5423 9.6 4.7423 9V8.9C5.0423 8.2 5.3423 7.6 5.7423 7.1L4.3423 5.7C4.5423 5.4 4.7423 5.2 5.0423 4.9C5.2423 4.7 5.5423 4.4 5.7423 4.2L7.1423 5.6C7.6423 5.2 8.2423 4.8 8.9423 4.5H9.0423C9.6423 4.2 10.0423 4.1 11.0423 4V2C11.0423 2 11.7423 2 12.0423 2C12.3423 2 13.0423 2 13.0423 2.1V4.1C14.0423 4.2 14.4423 4.4 15.0423 4.6H15.1423C15.7423 4.9 16.3423 5.2 16.9423 5.7L18.3423 4.3C18.6423 4.5 18.8423 4.7 19.0423 5C19.2423 5.2 19.5423 5.5 19.7423 5.7L18.3423 7.1C18.7423 7.6 19.1423 8.2 19.4423 8.9V9C19.7423 9.6 19.8423 10.3 19.9423 11H21.9423C21.9423 11.3 22.0423 11.7 22.0423 12C22.0423 12.3 22.0423 12.7 22.0423 13Z" fill="white"/>
<path d="M12.1423 8C9.9423 8 8.1423 9.8 8.1423 12C8.1423 14.2 9.9423 16 12.1423 16C14.3423 16 16.1423 14.2 16.1423 12C16.1423 9.8 14.3423 8 12.1423 8ZM12.1423 15C10.4423 15 9.1423 13.7 9.1423 12C9.1423 10.3 10.4423 9 12.1423 9C13.8423 9 15.1423 10.3 15.1423 12C15.1423 13.7 13.7423 15 12.1423 15Z" fill="white"/>
</svg>
