<svg width="40" height="40" viewBox="0 0 40 40" fill="none" xmlns="http://www.w3.org/2000/svg">
<circle cx="20" cy="20" r="19.5" stroke="white"/>
<path d="M27.9334 11.159C25.0601 12.349 12.7395 17.4524 9.33528 18.8433C7.05228 19.7342 8.38878 20.5696 8.38878 20.5696C8.38878 20.5696 10.3376 21.2377 12.0083 21.7388C13.6787 22.24 14.5696 21.6833 14.5696 21.6833L22.4209 16.3933C25.2051 14.5001 24.537 16.0591 23.8686 16.7275C22.4209 18.1754 20.0266 20.4582 18.0219 22.2958C17.131 23.0753 17.5763 23.7435 17.9663 24.0777C19.414 25.3028 23.3677 27.8085 23.5902 27.9755C24.7665 28.8083 27.0804 30.007 27.4323 27.4744L28.8244 18.7321C29.2699 15.781 29.7153 13.0524 29.7709 12.2729C29.9381 10.3794 27.9334 11.159 27.9334 11.159Z" fill="white"/>
</svg>
