<svg width="16" height="12" viewBox="0 0 16 12" fill="none" xmlns="http://www.w3.org/2000/svg">
<path d="M14.0214 0.105971C12.1058 0.899354 3.89206 4.30159 1.62261 5.22886C0.10061 5.82281 0.991608 6.3797 0.991608 6.3797C0.991608 6.3797 2.29082 6.82512 3.4046 7.15923C4.51824 7.49333 5.11218 7.12217 5.11218 7.12217L10.3464 3.59555C12.2025 2.33339 11.7571 3.37276 11.3115 3.81833C10.3464 4.78359 8.75013 6.30544 7.41371 7.53054C6.81976 8.05023 7.11665 8.49565 7.37665 8.71843C8.34176 9.53517 10.9775 11.2057 11.1259 11.317C11.9101 11.8722 13.4527 12.6713 13.6873 10.9829L14.6153 5.15475C14.9124 3.18733 15.2093 1.36828 15.2463 0.8486C15.3578 -0.413713 14.0214 0.105971 14.0214 0.105971Z" fill="#1D1E1C"/>
</svg>
