<svg width="40" height="40" viewBox="0 0 40 40" fill="none" xmlns="http://www.w3.org/2000/svg">
<circle cx="20" cy="20" r="19.5" stroke="white"/>
<path d="M31.8441 14.9755C31.8441 12.8659 30.2923 11.1688 28.3749 11.1688C25.7776 11.0469 23.1288 11 20.4238 11C20.2831 11 20.1425 11 20.0018 11C19.8612 11 19.7205 11 19.5799 11C16.8795 11 14.226 11.0469 11.6288 11.1688C9.71603 11.1688 8.16426 12.8753 8.16426 14.9849C8.04705 16.6539 7.99548 18.3229 8.00017 19.9919C7.99548 21.6608 8.04705 23.3298 8.15957 25.0035C8.15957 27.1132 9.71134 28.8243 11.6241 28.8243C14.3526 28.9509 17.1514 29.0072 19.9971 29.0025C22.8475 29.0119 25.637 28.9556 28.3702 28.8243C30.2876 28.8243 31.8394 27.1132 31.8394 25.0035C31.9519 23.3298 32.0035 21.6608 31.9988 19.9872C32.0082 18.3182 31.9566 16.6492 31.8441 14.9755ZM17.7046 24.5909V15.3787L24.5024 19.9825L17.7046 24.5909Z" fill="white"/>
</svg>
