<svg width="71" height="109" viewBox="0 0 71 109" fill="none" xmlns="http://www.w3.org/2000/svg">
<path d="M1.34177 97.0948V97.0975L4.9114 99.1586L5.52207 94.1577L33.6893 77.8885C34.6973 77.3066 35.5138 75.8917 35.5138 74.7285L35.5104 13.0745L38.0576 2.18438L34.486 0.12193L34.4839 0.120552L34.4778 0.11713L34.4771 0.117818C34.1475 -0.0681851 33.6948 -0.0394575 33.1949 0.248438L2.61097 17.9065C1.603 18.4884 0.786499 19.9033 0.786499 21.0665L0.7906 95.9062C0.7906 96.4985 1.00259 96.9081 1.34177 97.0948Z" fill="#D9D9D9"/>
<path d="M38.0577 2.18438L34.4861 0.12193L34.484 0.120552L34.4779 0.11713L34.4772 0.117818C34.1476 -0.0681851 33.6949 -0.0394575 33.195 0.248438L2.61108 17.9065C2.10709 18.1978 1.65097 18.6963 1.32068 19.2687L17.6391 28.6892L35.5111 18.6163L35.5105 13.0731L38.0577 2.18438Z" fill="#AEB5B7"/>
<path d="M38.6029 3.37347C38.6029 2.20753 37.7884 1.73705 36.7839 2.32036L6.19926 19.9757C5.18787 20.559 4.37341 21.9697 4.37341 23.1357L4.38094 97.9789C4.38094 99.1373 5.19539 99.6084 6.19994 99.0327L36.7852 81.3698C37.7966 80.7865 38.6111 79.3751 38.6111 78.2098L38.6029 3.37347ZM35.9277 78.5613L7.00003 95.2688C6.32577 95.6552 5.78485 95.3461 5.78485 94.5665L5.76366 24.9273C5.76366 24.1546 6.31141 23.2061 6.97883 22.8204L14.395 18.5293L14.5708 18.4316C15.2451 18.0452 15.786 18.3611 15.786 19.1339V19.618C15.786 19.9627 15.8913 20.215 16.0739 20.3627C16.0951 20.3771 16.1163 20.3908 16.1443 20.4044V20.4119C16.3624 20.5385 16.6709 20.5166 17.008 20.3203L25.9833 15.1375C26.6576 14.7518 27.1985 13.8102 27.1985 13.0306V12.5458C27.1985 11.7737 27.7463 10.8321 28.4137 10.4389L35.914 6.11291C36.5814 5.72654 37.1285 6.03633 37.1285 6.81522L37.1429 76.4476C37.1422 77.2265 36.6013 78.1674 35.9277 78.5613Z" fill="#DCEEFF"/>
<path d="M18.4372 16.2083L22.7919 13.6931C23.1652 13.4777 23.4682 13.5755 23.4682 13.9126C23.4682 14.2498 23.1652 14.6977 22.7919 14.9138L18.4372 17.4296C18.0638 17.645 17.7609 17.5465 17.7609 17.2094C17.7609 16.8723 18.0638 16.4237 18.4372 16.2083Z" fill="#031F60"/>
<path d="M23.9578 13.6081C23.9578 13.935 24.1875 14.067 24.4706 13.9042C24.7537 13.7408 24.9828 13.3435 24.9828 13.0166C24.9828 12.689 24.7531 12.557 24.47 12.7205C24.1868 12.8839 23.9578 13.2819 23.9578 13.6081Z" fill="#031F60"/>
<path d="M37.142 76.4474C37.142 77.227 36.6011 78.168 35.9268 78.5619L6.99919 95.2694C6.32493 95.6557 5.78402 95.3466 5.78402 94.5671V94.3004L5.76282 24.9279C5.76282 24.1551 6.31057 23.2067 6.978 22.821L14.3942 18.5299L14.5699 18.4321C15.2442 18.0457 15.7851 18.3617 15.7851 19.1344V19.6186C15.7851 20.3988 16.3329 20.7148 17.0071 20.3209L25.9825 15.1381C26.6568 14.7524 27.1977 13.8107 27.1977 13.0312V12.5463C27.1977 11.7743 27.7454 10.8326 28.4129 10.4394L35.7374 6.21196L35.9132 6.11279C36.5806 5.72642 37.1277 6.0362 37.1277 6.81509L37.142 76.4474Z" fill="#0B3FA5"/>
<path d="M35.9133 6.11247L35.7375 6.21164L34.2892 7.04728L34.2899 75.7428L36.9616 77.2855C37.0744 77.0065 37.1428 76.7179 37.1428 76.4478L37.1285 6.81546C37.1278 6.03589 36.5807 5.72679 35.9133 6.11247Z" fill="#608232"/>
<path d="M35.7518 75.5762C35.7518 76.3558 35.2109 77.2967 34.5367 77.6899L5.78475 94.2997L5.76355 24.9272C5.76355 24.1544 6.3113 23.2059 6.97873 22.8203L14.3949 18.5292V18.7466C14.3949 19.5269 14.9427 19.8428 15.617 19.449L15.7852 19.3512V19.6178C15.7852 20.3981 16.3329 20.714 17.0072 20.3202L25.9826 15.1374C26.6568 14.7517 27.1977 13.81 27.1977 13.0305V12.5456C27.1977 11.7736 27.7455 10.8319 28.4129 10.4387L35.7375 6.21124L35.7518 75.5762Z" fill="#6B99D1" fill-opacity="0.68"/>
<path d="M30.411 53.407C33.768 40.7369 35.2662 18.2886 35.7388 9.64355L35.7381 6.21069L28.4135 10.4382C27.7461 10.8314 27.1983 11.773 27.1983 12.5451V13.0299C27.1983 13.8095 26.6574 14.7511 25.9832 15.1368L17.0078 20.3196C16.3335 20.7128 15.7858 20.3969 15.7858 19.6173V19.3506L15.6176 19.4484C14.9433 19.8416 14.3955 19.5257 14.3955 18.7461V18.5286L6.97934 22.8197C6.31191 23.2054 5.76416 24.1539 5.76416 24.9266L5.78262 86.0808C6.17857 85.8284 25.0265 73.7252 30.411 53.407Z" fill="#6B99D1"/>
<path d="M16.073 20.3627L14.7245 19.5195C14.4995 19.3656 14.3942 19.0982 14.3942 18.7468V18.5293L14.5699 18.4315C15.2442 18.0451 15.7851 18.3611 15.7851 19.1338V19.618C15.7851 19.9626 15.8904 20.215 16.073 20.3627Z" fill="#031F60"/>
<path opacity="0.45" d="M46.9839 73.2934C47.0352 73.1669 47.0742 73.0397 47.1036 72.9112C47.1091 72.8879 47.1152 72.8654 47.1193 72.8414C47.146 72.7108 47.1644 72.5809 47.1644 72.4557L47.1501 2.8234C47.1501 2.04382 46.6023 1.73472 45.9349 2.12109L45.7592 2.22026L44.3108 3.0559V3.05659L38.4346 6.44774C37.7672 6.84095 37.2194 7.78259 37.2194 8.55464V9.03947C37.2194 9.81904 36.6785 10.7607 36.0042 11.1464L27.0289 16.3292C26.3546 16.7224 25.8069 16.4064 25.8069 15.6269V15.3602V15.1427C25.8069 14.37 25.2659 14.0541 24.5917 14.4404L24.4159 14.5389L16.9997 18.83C16.3323 19.2157 15.7845 20.1641 15.7845 20.9369L15.8057 90.3094V90.5761C15.8057 91.3563 16.3467 91.6647 17.0209 91.2784L45.9486 74.5709C46.3903 74.3137 46.7712 73.8214 46.9839 73.2934Z" fill="#E9FFFB"/>
<path d="M46.9839 73.2934C47.0352 73.1669 47.0742 73.0398 47.1036 72.9112C47.1091 72.8879 47.1152 72.8654 47.1193 72.8414C47.146 72.7108 47.1644 72.5809 47.1644 72.4557L47.1501 2.8234C47.1501 2.04382 46.6023 1.73472 45.9349 2.12109L45.7592 2.22026L44.3108 3.0559V3.05659L38.4346 6.44774C37.7672 6.84095 37.2194 7.78259 37.2194 8.55464V9.03947C37.2194 9.81904 36.6785 10.7607 36.0042 11.1464L27.0289 16.3292C26.3546 16.7224 25.8069 16.4064 25.8069 15.6269V15.3602V15.1427C25.8069 14.37 25.2659 14.0541 24.5917 14.4404L24.4159 14.5389L16.9997 18.83C16.3323 19.2157 15.7845 20.1641 15.7845 20.9369L15.8057 90.3094V90.5761C15.8057 91.3563 16.3467 91.6647 17.0209 91.2784L45.9486 74.5709C46.3903 74.3137 46.7712 73.8214 46.9839 73.2934Z" stroke="#C8E2FF" stroke-miterlimit="10"/>
<path opacity="0.8" d="M20.799 24.6713V76.4576C20.799 77.6208 21.6161 78.0927 22.6241 77.5107L47.5021 63.1467C48.5101 62.5648 49.3266 61.1499 49.3266 59.9867V8.20114C49.3266 7.03794 48.5094 6.5654 47.5021 7.14803L22.6241 21.5113C21.6161 22.0933 20.799 23.5081 20.799 24.6713Z" fill="white"/>
<path d="M20.799 24.6713V76.4576C20.799 77.6208 21.6161 78.0927 22.6241 77.5107L47.5021 63.1467C48.5101 62.5648 49.3266 61.1499 49.3266 59.9867V8.20114C49.3266 7.03794 48.5094 6.5654 47.5021 7.14803L22.6241 21.5113C21.6161 22.0933 20.799 23.5081 20.799 24.6713Z" stroke="#C8E2FF" stroke-miterlimit="10" stroke-linecap="round"/>
<path opacity="0.8" d="M24.3822 55.9795L34.3334 50.2339C34.7362 50.0014 35.0631 50.1894 35.0631 50.6551V50.6961C35.0631 51.1618 34.7369 51.7281 34.3334 51.9606L24.3822 57.7055C23.9795 57.938 23.6526 57.7499 23.6526 57.2842V57.2432C23.6519 56.7775 23.9788 56.2113 24.3822 55.9795Z" fill="#404040"/>
<path opacity="0.8" d="M37.1693 48.5973L45.7446 43.6464C46.1474 43.4132 46.4743 43.6026 46.4743 44.0676V44.1086C46.4743 44.5743 46.1481 45.1399 45.7446 45.3724L37.17 50.3233C36.7672 50.5565 36.4403 50.3671 36.4403 49.9021V49.8611C36.4389 49.3961 36.7665 48.8299 37.1693 48.5973Z" fill="#404040"/>
<g opacity="0.8">
<path d="M24.3826 64.1008L34.3338 58.3559C34.7366 58.1234 35.0635 58.3121 35.0635 58.7771V58.8188C35.0635 59.2845 34.7373 59.8508 34.3338 60.0833L24.3826 65.8282C23.9798 66.0607 23.653 65.8719 23.653 65.4069V65.3652C23.6523 64.8995 23.9791 64.3333 24.3826 64.1008Z" fill="#404040"/>
<path d="M37.1695 56.7193L45.7448 51.7677C46.1476 51.5351 46.4745 51.7239 46.4745 52.1889V52.2306C46.4745 52.6963 46.1483 53.2625 45.7448 53.495L37.1702 58.446C36.7674 58.6792 36.4406 58.4898 36.4406 58.0248V57.9837C36.4392 57.5181 36.7667 56.9512 37.1695 56.7193Z" fill="#404040"/>
</g>
<g opacity="0.8">
<path d="M24.3826 60.0396L29.7699 56.9288C30.1726 56.6963 30.4995 56.885 30.4995 57.35V57.3911C30.4995 57.8568 30.1726 58.423 29.7699 58.6555L24.3826 61.7656C23.9798 61.9981 23.653 61.8093 23.653 61.3443V61.3033C23.6523 60.8383 23.9791 60.2721 24.3826 60.0396Z" fill="#404040"/>
<path d="M32.1878 55.532L36.7578 52.8787C37.1599 52.6455 37.4868 52.8336 37.4868 53.2986V53.3396C37.4868 53.8053 37.1606 54.3715 36.7578 54.6054L32.1878 57.2587C31.7857 57.4925 31.4595 57.3038 31.4595 56.8388V56.7978C31.4595 56.3327 31.7857 55.7658 32.1878 55.532Z" fill="#404040"/>
<path d="M39.3482 51.3796L45.7441 47.7046C46.1476 47.4728 46.4745 47.6629 46.4745 48.1279V48.1696C46.4745 48.6353 46.1469 49.2002 45.7441 49.432L39.3482 53.1062C38.9447 53.3381 38.6172 53.1493 38.6172 52.6836V52.6419C38.6172 52.1762 38.9447 51.6114 39.3482 51.3796Z" fill="#404040"/>
</g>
<g opacity="0.8">
<path d="M24.3824 68.2071L33.0617 63.2049C33.4645 62.9724 33.7914 63.1611 33.7914 63.6268V63.6685C33.7914 64.1342 33.4645 64.6997 33.0617 64.9322L24.3824 69.9331C23.9797 70.1657 23.6521 69.9769 23.6521 69.5112V69.4702C23.6521 69.0045 23.9797 68.439 24.3824 68.2071Z" fill="#404040"/>
<path d="M35.481 61.808L40.0504 59.1547C40.4532 58.9208 40.7794 59.1095 40.7794 59.5746V59.6163C40.7794 60.082 40.4532 60.6482 40.0504 60.8814L35.481 63.5346C35.0783 63.7685 34.7521 63.5798 34.7521 63.1155V63.0738C34.7521 62.6087 35.0783 62.0418 35.481 61.808Z" fill="#404040"/>
<path d="M42.6407 57.6558L45.744 55.8716C46.1474 55.6398 46.4743 55.8286 46.4743 56.2942V56.3359C46.4743 56.8016 46.1468 57.3665 45.744 57.599L42.6407 59.3824C42.2373 59.6143 41.9104 59.4255 41.9104 58.9598V58.9188C41.9097 58.4531 42.2373 57.8876 42.6407 57.6558Z" fill="#404040"/>
</g>
<path opacity="0.8" d="M25.0811 49.7324L45.041 38.2077V15.161L25.0463 26.7042L25.0811 49.7324Z" fill="#404040"/>
<path opacity="0.7" d="M50.7518 98.3101L56.5931 94.9374C60.5546 92.65 66.0267 92.1009 68.814 93.7099C71.6013 95.319 70.6494 98.4783 66.6872 100.765L60.8459 104.138C56.8844 106.425 51.4131 106.975 48.6251 105.366C45.8377 103.756 46.7903 100.597 50.7518 98.3101Z" fill="#EEEEEE"/>
<path d="M69.0177 47.0778C69.1469 48.2048 70.529 52.8514 70.2411 54.5145C69.9538 56.1776 65.327 59.1667 65.327 59.1667L64.691 56.3205L66.6482 54.4024C67.0147 54.0434 67.187 53.5312 67.1132 53.0244L66.5442 49.1156L69.0177 47.0778Z" fill="#FFA8A7"/>
<path d="M66.5928 52.7482L64.691 44.1797C64.4353 40.9999 67.3484 41.2775 68.0234 42.3956C68.6983 43.5137 70.0708 50.8328 70.1337 51.4872C70.3874 53.1428 70.4264 53.9497 70.2807 54.6308C70.1357 55.3112 68.5137 57.2478 65.327 59.1674L64.691 56.3212L66.5928 52.7482Z" fill="#5F7D21"/>
<path d="M66.11 93.215C66.11 93.215 66.162 93.7121 66.3145 94.3385C66.4328 94.8254 66.4581 95.4614 65.9103 95.6364C65.3626 95.8115 64.7355 95.7547 64.3847 95.2802C63.9463 94.6879 63.7179 93.9515 63.0827 93.377C62.4727 92.8259 61.7184 92.2015 61.4996 91.3228C61.3019 90.5289 61.4278 90.0331 61.9701 89.9537C62.6546 89.8539 63.7385 90.4283 64.2937 90.8366C64.6938 91.132 66.11 93.215 66.11 93.215Z" fill="#1D1E1C"/>
<path d="M58.7232 97.8311C58.7232 97.8311 58.7636 98.4622 58.8012 98.9642C58.8388 99.4661 59.0173 100.266 58.8566 100.637C58.6959 101.008 57.8691 101.282 56.8974 101.275C56.2676 101.269 55.0469 101.757 54.6147 102.132C53.9965 102.669 52.5803 102.884 51.744 102.622C50.9076 102.36 49.9831 101.974 49.8436 101.588C49.7034 101.203 50.1383 101.012 52.1768 100.079C54.2147 99.1454 55.7178 98.5012 56.509 97.4242L58.7232 97.8311Z" fill="#1D1E1C"/>
<path d="M66.6038 82.3815C66.2564 79.7145 65.7073 78.1301 65.7073 78.1301C65.7073 78.1301 65.978 74.4627 66.108 70.9847C66.2488 67.2284 66.4827 62.5229 66.5491 61.586L54.3706 64.294C54.3706 64.294 55.1365 78.8556 55.2699 80.7629C55.4032 82.6708 55.5516 85.3138 55.7492 87.7633C55.9988 90.859 56.2648 97.7152 56.2648 97.7152C57.5525 98.464 58.7458 98.1932 58.7458 98.1932C58.7458 98.1932 59.8003 89.6432 59.976 87.4474C60.2133 84.4843 59.4618 81.9589 59.4618 81.9589C59.4618 81.9589 59.8003 78.1869 60.095 75.0809C60.3576 72.3127 60.6852 70.6578 60.7289 69.3038L60.9717 69.1739C60.9717 69.1739 61.2186 74.5468 61.3526 76.4547C61.4859 78.3626 61.7677 80.1919 62.2812 83.7355C62.7264 86.8094 63.8882 93.141 63.8882 93.141C65.1766 93.8891 66.1093 93.2149 66.1093 93.2149C66.1093 93.2149 66.9511 85.0485 66.6038 82.3815Z" fill="#D9D9D9"/>
<path d="M60.7303 69.3035C60.7303 69.3035 63.465 67.8545 64.834 66.5477C64.834 66.5477 63.5635 68.4727 61.8949 69.3268C61.8949 69.3268 61.3013 76.0017 61.3048 75.8691L60.9622 69.294L60.7303 69.3035Z" fill="#434343"/>
<path d="M64.8244 41.6912C63.8978 41.735 63.2072 41.9743 63.0909 41.7008C63.0006 41.4881 62.8803 40.2517 62.8803 40.2517C62.987 39.9823 63.0779 39.6937 63.0779 39.6937C64.2432 38.9771 65.0768 37.7673 65.2293 36.3012C65.4905 33.7963 63.6715 31.554 61.1666 31.2921C58.8115 31.0473 57.0779 32.7015 56.615 34.9746C56.366 36.0974 56.1438 38.324 56.6998 40.3249C56.9979 41.3958 57.255 41.7021 57.7105 41.8485C57.8746 41.9018 58.9475 41.9859 59.2751 41.9524L59.273 41.9531C59.273 41.9531 59.3982 42.6492 59.4843 43.0958C59.5705 43.5423 59.537 43.7783 58.6467 44.326C57.757 44.8738 59.9918 46.0001 61.4511 45.8893C62.9104 45.7785 64.5529 44.8984 65.0029 43.954C65.5055 42.9002 65.4611 41.6604 64.8244 41.6912Z" fill="#FBC6C6"/>
<path d="M64.8245 41.6912C63.8979 41.7349 63.2072 41.9743 63.0909 41.7007C63.0007 41.4881 62.8803 40.2517 62.8803 40.2517C62.987 39.9822 63.078 39.6937 63.078 39.6937C63.4896 39.4407 63.8568 39.1227 64.1707 38.7568L61.0914 39.7723L60.1908 39.5897L59.8249 39.3805L59.587 38.9565C59.5877 39.0153 59.4461 40.3597 59.1459 40.8165C58.8464 41.2727 58.0784 41.8033 57.6599 41.8279C57.677 41.8341 57.6927 41.8423 57.7105 41.8471C57.8746 41.9004 58.9476 41.9845 59.2751 41.951L59.2731 41.9517C59.2731 41.9517 59.3982 42.6478 59.4844 43.0944C59.5623 43.4979 59.5357 43.7324 58.8737 44.1769L60.1251 45.1363L63.8644 45.0741C63.9669 45.0105 64.0654 44.9455 64.1591 44.8772L65.2738 43.1607C65.4468 42.3654 65.3038 41.6679 64.8245 41.6912Z" fill="#FBC6C6"/>
<path d="M63.5737 39.8469C64.7157 38.8027 65.0767 37.7667 65.2292 36.3013C65.4904 33.7964 63.6714 31.5541 61.1666 31.2921C59.5431 31.1232 58.2165 31.8563 57.3959 33.0729C57.3959 33.0729 57.5648 33.412 57.8226 33.6651C57.8226 33.6651 57.6174 34.2463 57.9853 34.6587C58.2493 34.9555 58.2644 35.2618 58.2678 35.7672C58.2705 36.1994 58.211 36.9598 58.2568 37.4282C58.3211 38.0888 59.0562 38.2324 59.0562 38.2324C59.0562 38.2324 59.0966 36.7526 59.2251 36.596C59.4761 36.0489 60.4807 35.8855 60.7775 36.6712C61.0216 37.3188 60.893 37.9042 60.6872 38.5319C60.4813 39.159 59.8584 39.131 59.5869 38.9566C59.5972 39.2561 59.4775 40.2867 60.467 40.5657C61.4558 40.844 62.3797 40.5869 62.8871 40.3236C63.1921 40.1704 63.5737 39.8469 63.5737 39.8469Z" fill="#404040"/>
<path d="M57.8219 33.6649C57.8219 33.6649 56.6389 33.775 55.5605 32.54C54.4828 31.3043 55.0893 30.1589 56.3914 30.6758C57.6941 31.1921 59.8721 30.9001 60.9724 30.788C62.0727 30.6758 64.9947 31.2674 64.6904 33.6328L57.8219 33.6649Z" fill="#404040"/>
<path d="M63.4827 41.8277C63.7399 42.4684 63.0868 43.2514 61.3451 43.7998C59.6027 44.3476 59.4461 43.6426 59.4461 43.6426C59.4461 43.6426 56.8926 44.8065 56.0611 45.3877C55.0155 46.1181 54.5512 48.2332 54.4103 51.8035C54.2475 55.9352 53.9063 64.0838 54.0437 65.141C54.0437 65.141 55.2261 65.8249 56.2956 64.2705C56.9323 65.3147 58.0921 66.1723 59.6122 66.6256C62.0692 67.3587 65.4912 66.4314 67.1433 63.188C67.1146 59.5664 66.1012 56.526 66.6872 54.439C68.0289 49.661 68.7373 47.7046 68.0843 44.5302C67.5461 41.9131 66.7925 41.5876 65.7586 41.6129C64.7246 41.6382 63.4827 41.8277 63.4827 41.8277Z" fill="#8EC023"/>
<path d="M62.9773 41.1008C62.9773 41.1008 63.1408 41.0009 63.3288 41.1329C63.5162 41.2642 64.027 41.7545 64.027 41.7545C64.027 41.7545 64.1836 42.7755 62.9507 43.54C61.717 44.3052 60.2413 44.7114 58.7205 43.9818C58.7205 43.9818 59.0036 42.9923 59.1048 42.8192C59.2053 42.6456 59.3968 42.625 59.3968 42.625C59.3968 42.625 59.7831 43.1236 61.2554 42.625C62.7277 42.1265 63.0068 41.4174 63.0068 41.4174L62.9773 41.1008Z" fill="#76972F"/>
<path d="M50.4803 55.8894C52.5325 56.4063 53.0146 55.1125 53.284 54.0416C53.9364 51.4472 54.2886 49.105 54.7748 47.6334C55.3478 45.8965 55.9496 45.6202 56.7928 45.2824C57.783 44.885 58.6357 45.7221 58.3061 47.9316C57.9163 50.5452 57.4035 52.382 56.4263 55.475C56.1712 56.2833 55.5981 57.7179 54.7413 58.4113C53.6827 59.2675 52.088 59.2306 49.6754 58.6302C48.6462 58.3744 47.5179 57.7597 45.5717 56.8515C45.0499 56.6081 44.6431 56.446 43.6406 55.9796C42.6387 55.5126 41.5938 54.7323 41.068 53.9719C40.5421 53.2108 40.4723 52.8531 40.5797 52.6794C40.7144 52.462 40.9531 52.5105 41.2328 52.8306C41.5125 53.1506 41.9235 53.7271 42.7092 54.1969C42.7092 54.1969 42.0616 53.5274 41.7094 53.0925C41.3579 52.6575 41.083 52.1816 40.9333 51.8239C40.7479 51.3808 41.1309 50.779 41.4201 51.0936C41.7121 51.4116 41.8496 51.733 42.3803 52.369C42.863 52.9482 43.3301 53.2757 43.3301 53.2757C43.3301 53.2757 42.7912 52.555 42.4548 51.867C42.1177 51.1784 42.1211 50.8262 42.1354 50.593C42.1498 50.3605 42.4767 50.0863 42.7851 50.5247C43.062 50.9199 43.2426 51.5367 43.8874 52.2076C44.3565 52.6952 44.7545 52.9748 44.7662 52.8401C44.7778 52.7047 44.4824 52.4374 44.3148 51.8725C44.1548 51.3323 44.3189 50.7073 44.6287 50.6409C44.9385 50.5746 44.881 50.5937 45.132 51.123C45.3837 51.6523 45.77 52.0448 46.0641 52.8183C46.3232 53.4994 46.4422 53.7756 46.9079 54.27C47.4133 54.8055 48.5293 55.3977 50.4803 55.8894Z" fill="#FBC6C6"/>
<path d="M49.1503 55.4713L48.0015 54.9488C47.3313 55.236 46.7815 56.3958 46.9942 57.6028L48.3906 58.1738L49.1503 55.4713Z" fill="#F5FBFB"/>
<path d="M56.9398 44.8702C55.6063 45.0295 55.0127 45.4084 54.3706 48.3544C53.7285 51.3003 53.3161 54.1677 52.8115 54.8159C52.3068 55.4642 52.0695 56.3778 48.9888 55.2276C48.9888 55.2276 47.563 55.7843 47.7046 58.175C47.7046 58.175 49.3656 58.8075 51.225 59.1672C53.085 59.5269 54.7905 59.358 55.9181 57.022C57.0458 54.6853 58.2487 50.1146 58.4429 48.2532C58.6384 46.3897 58.1591 44.7239 56.9398 44.8702Z" fill="#76972F"/>
<path opacity="0.1" d="M0.740625 106.541L35.154 86.7727C35.4747 86.5874 35.9938 86.5881 36.3138 86.7741L39.2393 88.4331C39.5593 88.6184 39.5593 88.9193 39.2386 89.104L4.81971 108.861C4.49899 109.047 3.97927 109.047 3.65924 108.861L0.739941 107.212C0.419906 107.027 0.419905 106.726 0.740625 106.541Z" fill="white"/>
</svg>
